<svg xmlns="http://www.w3.org/2000/svg" width="25" height="25" viewBox="0 0 25 25">
  <metadata><?xpacket begin="﻿" id="W5M0MpCehiHzreSzNTczkc9d"?>
<x:xmpmeta xmlns:x="adobe:ns:meta/" x:xmptk="Adobe XMP Core 5.6-c138 79.159824, 2016/09/14-01:09:01        ">
   <rdf:RDF xmlns:rdf="http://www.w3.org/1999/02/22-rdf-syntax-ns#">
      <rdf:Description rdf:about=""/>
   </rdf:RDF>
</x:xmpmeta>
                                                                                                    
                                                                                                    
                                                                                                    
                                                                                                    
                                                                                                    
                                                                                                    
                                                                                                    
                                                                                                    
                                                                                                    
                                                                                                    
                                                                                                    
                                                                                                    
                                                                                                    
                                                                                                    
                                                                                                    
                                                                                                    
                                                                                                    
                                                                                                    
                                                                                                    
                                                                                                    
                           
<?xpacket end="w"?></metadata>
<defs>
    <style>
      .cls-1 {
        fill: #f8f8f8;
        fill-rule: evenodd;
      }
    </style>
  </defs>
  <path id="Path_2" data-name="Path 2" class="cls-1" d="M1501.19,69.5a2.479,2.479,0,0,0,2.18-1.287l4.48-8.113a1.247,1.247,0,0,0-1.09-1.85h-18.5l-1.17-2.5H1483v2.5h2.5l4.5,9.488-1.69,3.05a2.506,2.506,0,0,0,2.19,3.712h15V72h-15l1.37-2.5h9.32Zm-11.74-8.75h15.19L1501.19,67h-8.78Zm1.05,15a2.5,2.5,0,1,0,2.5,2.5A2.5,2.5,0,0,0,1490.5,75.75Zm12.5,0a2.5,2.5,0,1,0,2.5,2.5A2.5,2.5,0,0,0,1503,75.75Z" transform="translate(-1483 -55.75)"/>
</svg>
