<svg xmlns="http://www.w3.org/2000/svg" width="27" height="27" viewBox="0 0 27 27">
  <metadata><?xpacket begin="﻿" id="W5M0MpCehiHzreSzNTczkc9d"?>
<x:xmpmeta xmlns:x="adobe:ns:meta/" x:xmptk="Adobe XMP Core 5.6-c138 79.159824, 2016/09/14-01:09:01        ">
   <rdf:RDF xmlns:rdf="http://www.w3.org/1999/02/22-rdf-syntax-ns#">
      <rdf:Description rdf:about=""/>
   </rdf:RDF>
</x:xmpmeta>
                                                                                                    
                                                                                                    
                                                                                                    
                                                                                                    
                                                                                                    
                                                                                                    
                                                                                                    
                                                                                                    
                                                                                                    
                                                                                                    
                                                                                                    
                                                                                                    
                                                                                                    
                                                                                                    
                                                                                                    
                                                                                                    
                                                                                                    
                                                                                                    
                                                                                                    
                                                                                                    
                           
<?xpacket end="w"?></metadata>
<defs>
    <style>
      .cls-1 {
        fill: #f8f8f8;
        fill-rule: evenodd;
      }
    </style>
  </defs>
  <path id="Path_184" data-name="Path 184" class="cls-1" d="M1391.75,54.75a13.5,13.5,0,1,0,13.5,13.5A13.506,13.506,0,0,0,1391.75,54.75Zm-6.66,21.977c0.58-1.215,4.12-2.4,6.66-2.4s6.09,1.188,6.65,2.4A10.7,10.7,0,0,1,1385.09,76.727Zm15.25-1.957c-1.94-2.349-6.62-3.146-8.59-3.146s-6.66.8-8.59,3.146A10.8,10.8,0,1,1,1400.34,74.771Zm-8.59-14.621a4.725,4.725,0,1,0,4.72,4.725A4.717,4.717,0,0,0,1391.75,60.15Zm0,6.75a2.025,2.025,0,1,1,2.02-2.025A2.027,2.027,0,0,1,1391.75,66.9Z" transform="translate(-1378.25 -54.75)"/>
</svg>
