<?xml version="1.0" standalone="no"?>
<!DOCTYPE svg PUBLIC "-//W3C//DTD SVG 20010904//EN"
 "http://www.w3.org/TR/2001/REC-SVG-20010904/DTD/svg10.dtd">
<svg version="1.0" xmlns="http://www.w3.org/2000/svg"
 width="225.000000pt" height="225.000000pt" viewBox="0 0 225.000000 225.000000"
 preserveAspectRatio="xMidYMid meet">
<metadata>
Created by potrace 1.11, written by Peter Selinger 2001-2013
</metadata>
<g transform="translate(0.000000,225.000000) scale(0.100000,-0.100000)"
fill="#000000" stroke="none">
<path d="M154 2225 c-63 -31 -114 -85 -137 -146 -16 -42 -17 -113 -15 -971 l3
-925 30 -48 c40 -64 101 -110 165 -124 35 -8 332 -11 929 -11 1012 0 949 -5
1042 89 49 49 57 64 68 116 9 45 11 284 9 955 l-3 895 -25 49 c-14 27 -42 64
-64 82 -78 67 -33 64 -1040 64 l-911 -1 -51 -24z m942 -131 c41 -8 95 -49 126
-95 35 -52 35 -69 3 -69 -22 0 -25 -5 -31 -51 -19 -141 -160 -195 -257 -99
-30 31 -47 40 -80 42 l-42 3 0 67 c0 58 4 72 30 109 39 55 72 79 132 94 46 13
57 12 119 -1z m-181 -348 c27 -12 54 -44 130 -159 l95 -145 111 -4 c96 -3 113
-6 125 -22 19 -26 18 -55 -3 -78 -14 -16 -33 -18 -159 -18 -164 0 -156 -4
-220 103 -20 31 -39 57 -44 57 -4 0 -36 -44 -71 -97 -34 -54 -68 -108 -76
-119 -13 -21 -10 -24 79 -69 121 -62 170 -95 185 -125 10 -19 13 -86 11 -267
-3 -240 -3 -242 -27 -267 -32 -34 -80 -35 -118 -2 l-28 24 -3 191 -3 190 -185
102 c-284 155 -283 147 -70 468 116 177 153 225 178 236 42 18 51 18 93 1z
m626 -468 c27 -18 52 -58 117 -187 46 -90 80 -167 75 -171 -4 -5 -20 -12 -35
-15 -27 -7 -29 -4 -106 151 l-78 159 -78 5 c-72 5 -95 15 -96 42 -1 43 142 54
201 16z m360 -88 c68 -35 65 -84 -4 -55 -50 21 -105 19 -151 -6 -21 -11 -39
-19 -41 -17 -1 2 -10 18 -19 36 -16 31 -16 32 6 41 13 4 30 11 38 14 37 14
132 6 171 -13z m-371 -131 c23 -44 40 -85 38 -89 -3 -10 -212 -251 -293 -338
-54 -59 -102 -89 -116 -75 -5 5 -8 115 -7 248 l3 239 90 27 c195 57 230 68
237 68 4 1 26 -35 48 -80z m-1073 34 c33 -17 131 -70 217 -118 l156 -87 0 -39
c0 -21 -2 -39 -5 -39 -6 0 -133 68 -150 80 -5 4 -39 23 -75 42 -36 19 -104 56
-152 82 -78 42 -94 47 -151 47 -35 0 -76 -5 -90 -12 -36 -16 -58 1 -36 27 51
62 183 70 286 17z m149 -242 c68 -26 136 -90 169 -158 38 -76 41 -192 8 -265
-82 -180 -301 -249 -463 -147 -64 40 -95 75 -127 144 -67 143 -11 323 124 402
92 54 193 62 289 24z m1351 -12 c111 -54 176 -158 177 -284 0 -61 -4 -81 -32
-138 -103 -209 -371 -249 -525 -77 -46 51 -87 151 -87 211 0 88 56 200 126
256 99 77 224 89 341 32z"/>
<path d="M436 769 c-56 -13 -99 -43 -129 -88 -91 -138 -27 -303 133 -341 78
-19 162 9 215 71 37 45 47 74 47 145 -1 106 -55 179 -158 210 -53 16 -53 16
-108 3z"/>
<path d="M1747 764 c-143 -44 -200 -233 -105 -349 131 -158 391 -68 392 136 0
106 -64 189 -167 216 -61 16 -59 16 -120 -3z"/>
</g>
</svg>
